<svg width="431" height="500" xmlns="http://www.w3.org/2000/svg">
 <defs>
  <linearGradient y2="1.242331" x2="0.970051" y1="0.808463" x1="-0.000065" id="paint0_linear">
   <stop stop-color="#F0145A"/>
   <stop stop-color="#693264" offset="1"/>
  </linearGradient>
 </defs>
 <g>
  <title>background</title>
  <rect fill="none" id="canvas_background" height="502" width="433" y="-1" x="-1"/>
 </g>
 <g>
  <title>Layer 1</title>
  <path stroke="null" id="svg_1" fill="#F0145A" d="m46.7946,687.461l-46.7946,0c0,0 187.848,-578.177 207.75,-639.4124c9.312,-28.6506 36.007,-48.0486 66.127,-48.0486l83.657,0c25.228,0 46.283,10.6562 59.374,28.6634c13.082,18.0081 16.793,41.05 9.165,64.5566c-7.639,23.506 -14.854,45.696 -21.459,66.027c-8.918,27.452 -33.624,46.367 -62.189,47.906c0,0 -0.148,-0.048 39.875,-123.2339c3.534,-10.8708 2.244,-21.5113 -3.308,-29.1427c-5.541,-7.6305 -14.892,-12.1465 -27.265,-12.1465l-71.786,0c-14.096,0 -26.587,9.0773 -30.948,22.4848l-202.1984,622.3463z" clip-rule="evenodd" fill-rule="evenodd"/>
  <path id="svg_2" fill="url(#paint0_linear)" d="m342.416,207.155l-94.318,0l41.558,-126.3933l47.017,0.2778l-27.301,83.3545l46.877,0.028l-13.833,42.733z" clip-rule="evenodd" fill-rule="evenodd"/>
 </g>
</svg>